<svg width="85" height="84" viewBox="0 0 85 84" fill="none" xmlns="http://www.w3.org/2000/svg">
<path d="M26.1087 13.1907C36.9151 11.983 48.085 11.983 58.8914 13.1907C62.9487 13.6442 66.5103 15.8383 68.7633 19.0246L40.7501 47.0378L32.1063 38.394C31.0812 37.3688 29.4191 37.3688 28.394 38.394C27.3688 39.4191 27.3688 41.0811 28.394 42.1063L38.894 52.6063C39.9191 53.6314 41.5812 53.6314 42.6063 52.6063L71.0103 24.2023C71.089 24.5857 71.1517 24.9751 71.1979 25.3698C72.4902 36.419 72.4902 47.5812 71.1979 58.6304C70.4459 65.0598 65.2838 70.095 58.8914 70.8095C48.085 72.0173 36.9151 72.0173 26.1087 70.8095C19.7164 70.095 14.5542 65.0598 13.8022 58.6304C12.5099 47.5812 12.5099 36.419 13.8022 25.3698C14.5542 18.9404 19.7164 13.9052 26.1087 13.1907Z" fill="#C6F4C6"/>
</svg>
